Sprint_08550001_forces_filt15Hz.mot
version=1
nRows=57
nColumns=19
inDegrees=yes
endheader
time	R_ground_force_vx	R_ground_force_vy	R_ground_force_vz	R_ground_force_px	R_ground_force_py	R_ground_force_pz	R_ground_torque_x	R_ground_torque_y	R_ground_torque_z	L_ground_force_vx	L_ground_force_vy	L_ground_force_vz	L_ground_force_px	L_ground_force_py	L_ground_force_pz	L_ground_torque_x	L_ground_torque_y	L_ground_torque_z	
0.000000	  0.000000	  0.000000	  0.000000	  0.215513	  0.000000	 -0.271243	  0.000000	  0.000000	  0.000000	  0.000000	  0.000000	  0.000000	  0.913322	  0.000000	 -0.383025	  0.000000	  0.000000	  0.000000
0.000500	  0.000000	  0.000000	  0.000000	  0.214677	 -0.000000	 -0.271497	  0.000000	  0.000000	  0.000000	  0.000000	  0.000000	  0.000000	  0.916183	 -0.000000	 -0.382925	  0.000000	  0.000000	  0.000000
0.001000	  0.000000	  0.000000	  0.000000	  0.213841	 -0.000000	 -0.271751	  0.000000	  0.000000	  0.000000	  0.000000	  0.000000	  0.000000	  0.919043	 -0.000000	 -0.382824	  0.000000	  0.000000	  0.000000
0.001500	  0.000000	  0.000000	  0.000000	  0.213006	 -0.000000	 -0.272005	  0.000000	  0.000000	  0.000000	  0.000000	  0.000000	  0.000000	  0.921904	 -0.000000	 -0.382724	  0.000000	  0.000000	  0.000000
0.002000	  0.000000	  0.000000	  0.000000	  0.212170	 -0.000000	 -0.272259	  0.000000	  0.000000	  0.000000	  0.000000	  0.000000	  0.000000	  0.924765	 -0.000000	 -0.382624	  0.000000	  0.000000	  0.000000
0.002500	  0.000000	  0.000000	  0.000000	  0.211334	  0.000000	 -0.272513	  0.000000	  0.000000	  0.000000	  0.000000	  0.000000	  0.000000	  0.927625	  0.000000	 -0.382523	  0.000000	  0.000000	  0.000000
0.003000	  0.000000	  0.000000	  0.000000	  0.210498	  0.000000	 -0.272767	  0.000000	  0.000000	  0.000000	  0.000000	  0.000000	  0.000000	  0.930486	  0.000000	 -0.382423	  0.000000	  0.000000	  0.000000
0.003500	  0.000000	  0.000000	  0.000000	  0.209662	  0.000000	 -0.273021	  0.000000	  0.000000	  0.000000	  0.000000	  0.000000	  0.000000	  0.933346	  0.000000	 -0.382322	  0.000000	  0.000000	  0.000000
0.004000	  0.000000	  0.000000	  0.000000	  0.208827	  0.000000	 -0.273275	  0.000000	  0.000000	  0.000000	  0.000000	  0.000000	  0.000000	  0.936207	  0.000000	 -0.382222	  0.000000	  0.000000	  0.000000
0.004500	  0.000000	  0.000000	  0.000000	  0.207991	  0.000000	 -0.273529	  0.000000	  0.000000	  0.000000	  0.000000	  0.000000	  0.000000	  0.939068	  0.000000	 -0.382122	  0.000000	  0.000000	  0.000000
0.005000	  0.000000	  0.000000	  0.000000	  0.207155	  0.000000	 -0.273783	  0.000000	  0.000000	  0.000000	  0.000000	  0.000000	  0.000000	  0.941928	  0.000000	 -0.382021	  0.000000	  0.000000	  0.000000
0.005500	  0.000000	  0.000000	  0.000000	  0.206486	  0.000000	 -0.274119	  0.000000	  0.000000	  0.000000	  0.000000	  0.000000	  0.000000	  0.944814	  0.000000	 -0.381869	  0.000000	  0.000000	  0.000000
0.006000	  0.000000	  0.000000	  0.000000	  0.205817	  0.000000	 -0.274455	  0.000000	  0.000000	  0.000000	  0.000000	  0.000000	  0.000000	  0.947701	  0.000000	 -0.381717	  0.000000	  0.000000	  0.000000
0.006500	  0.000000	  0.000000	  0.000000	  0.205148	  0.000000	 -0.274791	  0.000000	  0.000000	  0.000000	  0.000000	  0.000000	  0.000000	  0.950587	  0.000000	 -0.381565	  0.000000	  0.000000	  0.000000
0.007000	  0.000000	  0.000000	  0.000000	  0.204479	  0.000000	 -0.275126	  0.000000	  0.000000	  0.000000	  0.000000	  0.000000	  0.000000	  0.953473	  0.000000	 -0.381413	  0.000000	  0.000000	  0.000000
0.007500	  0.000000	  0.000000	  0.000000	  0.203810	  0.000000	 -0.275462	  0.000000	  0.000000	  0.000000	  0.000000	  0.000000	  0.000000	  0.956359	  0.000000	 -0.381261	  0.000000	  0.000000	  0.000000
0.008000	  0.000000	  0.000000	  0.000000	  0.203141	  0.000000	 -0.275798	  0.000000	  0.000000	  0.000000	  0.000000	  0.000000	  0.000000	  0.959245	  0.000000	 -0.381109	  0.000000	  0.000000	  0.000000
0.008500	  0.000000	  0.000000	  0.000000	  0.202472	  0.000000	 -0.276134	  0.000000	  0.000000	  0.000000	  0.000000	  0.000000	  0.000000	  0.962132	  0.000000	 -0.380957	  0.000000	  0.000000	  0.000000
0.009000	  0.000000	  0.000000	  0.000000	  0.201803	  0.000000	 -0.276469	  0.000000	  0.000000	  0.000000	  0.000000	  0.000000	  0.000000	  0.965018	  0.000000	 -0.380805	  0.000000	  0.000000	  0.000000
0.009500	  0.000000	  0.000000	  0.000000	  0.201134	  0.000000	 -0.276805	  0.000000	  0.000000	  0.000000	  0.000000	  0.000000	  0.000000	  0.967904	  0.000000	 -0.380653	  0.000000	  0.000000	  0.000000
0.010000	  0.000000	  0.000000	  0.000000	  0.200465	  0.000000	 -0.277141	  0.000000	  0.000000	  0.000000	  0.000000	  0.000000	  0.000000	  0.970790	  0.000000	 -0.380501	  0.000000	  0.000000	  0.000000
0.010500	  0.000000	  0.000000	  0.000000	  0.199530	  0.000000	 -0.277517	  0.000000	  0.000000	  0.000000	  0.000000	  0.000000	  0.000000	  0.973657	  0.000000	 -0.380490	  0.000000	  0.000000	  0.000000
0.011000	  0.000000	  0.000000	  0.000000	  0.198594	  0.000000	 -0.277893	  0.000000	  0.000000	  0.000000	  0.000000	  0.000000	  0.000000	  0.976525	  0.000000	 -0.380478	  0.000000	  0.000000	  0.000000
0.011500	  0.000000	  0.000000	  0.000000	  0.197659	  0.000000	 -0.278270	  0.000000	  0.000000	  0.000000	  0.000000	  0.000000	  0.000000	  0.979392	  0.000000	 -0.380466	  0.000000	  0.000000	  0.000000
0.012000	  0.000000	  0.000000	  0.000000	  0.196723	  0.000000	 -0.278646	  0.000000	  0.000000	  0.000000	  0.000000	  0.000000	  0.000000	  0.982259	  0.000000	 -0.380455	  0.000000	  0.000000	  0.000000
0.012500	  0.000000	  0.000000	  0.000000	  0.195788	  0.000000	 -0.279022	  0.000000	  0.000000	  0.000000	  0.000000	  0.000000	  0.000000	  0.985126	  0.000000	 -0.380443	  0.000000	  0.000000	  0.000000
0.013000	  0.000000	  0.000000	  0.000000	  0.194852	  0.000000	 -0.279399	  0.000000	  0.000000	  0.000000	  0.000000	  0.000000	  0.000000	  0.987993	  0.000000	 -0.380431	  0.000000	  0.000000	  0.000000
0.013500	  0.000000	  0.000000	  0.000000	  0.193917	  0.000000	 -0.279775	  0.000000	  0.000000	  0.000000	  0.000000	  0.000000	  0.000000	  0.990860	  0.000000	 -0.380420	  0.000000	  0.000000	  0.000000
0.014000	  0.000000	  0.000000	  0.000000	  0.192981	  0.000000	 -0.280151	  0.000000	  0.000000	  0.000000	  0.000000	  0.000000	  0.000000	  0.993728	  0.000000	 -0.380408	  0.000000	  0.000000	  0.000000
0.014500	  0.000000	  0.000000	  0.000000	  0.192046	  0.000000	 -0.280528	  0.000000	  0.000000	  0.000000	  0.000000	  0.000000	  0.000000	  0.996595	  0.000000	 -0.380396	  0.000000	  0.000000	  0.000000
0.015000	  0.000000	  0.000000	  0.000000	  0.191111	  0.000000	 -0.280904	  0.000000	  0.000000	  0.000000	  0.000000	  0.000000	  0.000000	  0.999462	  0.000000	 -0.380385	  0.000000	  0.000000	  0.000000
0.015500	  0.000000	  0.000000	  0.000000	  0.190375	  0.000000	 -0.281318	  0.000000	  0.000000	  0.000000	  0.000000	  0.000000	  0.000000	  1.002255	  0.000000	 -0.380272	  0.000000	  0.000000	  0.000000
0.016000	  0.000000	  0.000000	  0.000000	  0.189639	  0.000000	 -0.281732	  0.000000	  0.000000	  0.000000	  0.000000	  0.000000	  0.000000	  1.005047	  0.000000	 -0.380160	  0.000000	  0.000000	  0.000000
0.016500	  0.000000	  0.000000	  0.000000	  0.188904	  0.000000	 -0.282146	  0.000000	  0.000000	  0.000000	  0.000000	  0.000000	  0.000000	  1.007840	  0.000000	 -0.380048	  0.000000	  0.000000	  0.000000
0.017000	  0.000000	  0.000000	  0.000000	  0.188168	  0.000000	 -0.282560	  0.000000	  0.000000	  0.000000	  0.000000	  0.000000	  0.000000	  1.010633	  0.000000	 -0.379936	  0.000000	  0.000000	  0.000000
0.017500	  0.000000	  0.000000	  0.000000	  0.187433	  0.000000	 -0.282974	  0.000000	  0.000000	  0.000000	  0.000000	  0.000000	  0.000000	  1.013425	  0.000000	 -0.379823	  0.000000	  0.000000	  0.000000
0.018000	  0.000000	  0.000000	  0.000000	  0.186697	  0.000000	 -0.283388	  0.000000	  0.000000	  0.000000	  0.000000	  0.000000	  0.000000	  1.016218	  0.000000	 -0.379711	  0.000000	  0.000000	  0.000000
0.018500	  0.000000	  0.000000	  0.000000	  0.185962	  0.000000	 -0.283802	  0.000000	  0.000000	  0.000000	  0.000000	  0.000000	  0.000000	  1.019011	  0.000000	 -0.379599	  0.000000	  0.000000	  0.000000
0.019000	  0.000000	  0.000000	  0.000000	  0.185226	  0.000000	 -0.284216	  0.000000	  0.000000	  0.000000	  0.000000	  0.000000	  0.000000	  1.021803	  0.000000	 -0.379486	  0.000000	  0.000000	  0.000000
0.019500	  0.000000	  0.000000	  0.000000	  0.184490	  0.000000	 -0.284630	  0.000000	  0.000000	  0.000000	  0.000000	  0.000000	  0.000000	  1.024596	  0.000000	 -0.379374	  0.000000	  0.000000	  0.000000
0.020000	  0.000000	  0.000000	  0.000000	  0.183755	  0.000000	 -0.285044	  0.000000	  0.000000	  0.000000	  0.000000	  0.000000	  0.000000	  1.027389	  0.000000	 -0.379262	  0.000000	  0.000000	  0.000000
0.020500	  0.000000	  0.000000	  0.000000	  0.183182	  0.000000	 -0.285521	  0.000000	  0.000000	  0.000000	  0.000000	  0.000000	  0.000000	  1.030050	  0.000000	 -0.379215	  0.000000	  0.000000	  0.000000
0.021000	  0.000000	  0.000000	  0.000000	  0.182609	  0.000000	 -0.285998	  0.000000	  0.000000	  0.000000	  0.000000	  0.000000	  0.000000	  1.032711	  0.000000	 -0.379168	  0.000000	  0.000000	  0.000000
0.021500	  0.000000	  0.000000	  0.000000	  0.182036	  0.000000	 -0.286474	  0.000000	  0.000000	  0.000000	  0.000000	  0.000000	  0.000000	  1.035372	  0.000000	 -0.379121	  0.000000	  0.000000	  0.000000
0.022000	  0.000000	  0.000000	  0.000000	  0.181463	  0.000000	 -0.286951	  0.000000	  0.000000	  0.000000	  0.000000	  0.000000	  0.000000	  1.038033	  0.000000	 -0.379074	  0.000000	  0.000000	  0.000000
0.022500	  0.000000	  0.000000	  0.000000	  0.180891	  0.000000	 -0.287427	  0.000000	  0.000000	  0.000000	  0.000000	  0.000000	  0.000000	  1.040694	  0.000000	 -0.379027	  0.000000	  0.000000	  0.000000
0.023000	  0.000000	  0.000000	  0.000000	  0.180318	  0.000000	 -0.287904	  0.000000	  0.000000	  0.000000	  0.000000	  0.000000	  0.000000	  1.043355	  0.000000	 -0.378980	  0.000000	  0.000000	  0.000000
0.023500	  0.000000	  0.000000	  0.000000	  0.179745	  0.000000	 -0.288381	  0.000000	  0.000000	  0.000000	  0.000000	  0.000000	  0.000000	  1.046016	  0.000000	 -0.378933	  0.000000	  0.000000	  0.000000
0.024000	  0.000000	  0.000000	  0.000000	  0.179172	  0.000000	 -0.288857	  0.000000	  0.000000	  0.000000	  0.000000	  0.000000	  0.000000	  1.048677	  0.000000	 -0.378886	  0.000000	  0.000000	  0.000000
0.024500	  0.000000	  0.000000	  0.000000	  0.178599	  0.000000	 -0.289334	  0.000000	  0.000000	  0.000000	  0.000000	  0.000000	  0.000000	  1.051338	  0.000000	 -0.378840	  0.000000	  0.000000	  0.000000
0.025000	  0.000000	  0.000000	  0.000000	  0.178026	  0.000000	 -0.289810	  0.000000	  0.000000	  0.000000	  0.000000	  0.000000	  0.000000	  1.053999	  0.000000	 -0.378793	  0.000000	  0.000000	  0.000000
0.025500	  0.000000	  0.000000	  0.000000	  0.177555	  0.000000	 -0.290191	  0.000000	  0.000000	  0.000000	  0.000000	  0.000000	  0.000000	  1.056472	  0.000000	 -0.378723	  0.000000	  0.000000	  0.000000
0.026000	  0.000000	  0.000000	  0.000000	  0.177084	  0.000000	 -0.290572	  0.000000	  0.000000	  0.000000	  0.000000	  0.000000	  0.000000	  1.058945	  0.000000	 -0.378653	  0.000000	  0.000000	  0.000000
0.026500	  0.000000	  0.000000	  0.000000	  0.176613	  0.000000	 -0.290952	  0.000000	  0.000000	  0.000000	  0.000000	  0.000000	  0.000000	  1.061419	  0.000000	 -0.378583	  0.000000	  0.000000	  0.000000
0.027000	  0.000000	  0.000000	  0.000000	  0.176142	  0.000000	 -0.291333	  0.000000	  0.000000	  0.000000	  0.000000	  0.000000	  0.000000	  1.063892	  0.000000	 -0.378513	  0.000000	  0.000000	  0.000000
0.027500	  0.000000	  0.000000	  0.000000	  0.175672	  0.000000	 -0.291713	  0.000000	  0.000000	  0.000000	  0.000000	  0.000000	  0.000000	  1.066365	  0.000000	 -0.378443	  0.000000	  0.000000	  0.000000
0.028000	  0.000000	  0.000000	  0.000000	  0.175201	  0.000000	 -0.292094	  0.000000	  0.000000	  0.000000	  0.000000	  0.000000	  0.000000	  1.068839	  0.000000	 -0.378373	  0.000000	  0.000000	  0.000000
